# xmcd
#
# Track frame offsets:
#	150
#	11599
#	24890
#	38685
#	50727
#	63069
#	74933
#	87421
#	100561
#	114277
#	126782
#	141388
#	155925
#	170907
#	185039
#	199482
#	213667
#	224909
#	238482
#	251689
#	266102
#	281212
#	295863
#	309838
#
# Disc length: 4298 seconds
# Revision: 2
# Processed by: cddbd v1.5.2PL0 Copyright (c) Steve Scherf et al.
# Submitted via: dBpowerAMP V12.0
#
DISCID=8b10c818
DTITLE=Ma Rainey - Mother Of The Blues, 1923-1928
DYEAR=1997
DGENRE=Blues
TTITLE0=Black Cat Hoot Owl Blues
TTITLE1=Log Camp Blues
TTITLE2=Hear Me Talking To You
TTITLE3=Hustlin' Blues
TTITLE4=Prove It To Me Blues
TTITLE5=Victim Of The Blues
TTITLE6=Travelling Blues: 1
TTITLE7=Travelling Blues: 2
TTITLE8=Deep Moaning Blues: 1
TTITLE9=Deep Moaning Blues: 2
TTITLE10=Daddy Goodbye Blues
TTITLE11=Sleep Talking Blues: 1
TTITLE12=Sleep Talking Blues: 2
TTITLE13=Tough Luck Blues
TTITLE14=Blame It On The Blues
TTITLE15=Sweet Rough Man
TTITLE16=Runaway Blues
TTITLE17=Screech Owl Blues
TTITLE18=Black Dust Blues
TTITLE19=Leaving This Morning
TTITLE20=Black Eye Blues: 1
TTITLE21=Black Eye Blues: 2
TTITLE22=Ma And Pa Poorhouse Blues
TTITLE23=Big Feeling Blues
EXTD=
EXTT0=
EXTT1=
EXTT2=
EXTT3=
EXTT4=
EXTT5=
EXTT6=
EXTT7=
EXTT8=
EXTT9=
EXTT10=
EXTT11=
EXTT12=
EXTT13=
EXTT14=
EXTT15=
EXTT16=
EXTT17=
EXTT18=
EXTT19=
EXTT20=
EXTT21=
EXTT22=
EXTT23=
PLAYORDER=
